<?xml version="1.0" encoding="utf-8"?>
<!-- Generator: Adobe Illustrator 26.3.1, SVG Export Plug-In . SVG Version: 6.00 Build 0)  -->
<svg version="1.1" id="visual" xmlns="http://www.w3.org/2000/svg" xmlns:xlink="http://www.w3.org/1999/xlink" x="0px" y="0px"
	 viewBox="0 0 900 155" style="enable-background:new 0 0 900 155;" xml:space="preserve">
<style type="text/css">
	.st0{fill:#1E3B8B;}
</style>
<path class="st0" d="M0,37l21.5-3.2C43,30.7,86,24.3,128.8,29.3c42.9,5,85.5,21.4,128.4,20.7C300,49.3,343,31.7,385.8,19.8
	C428.7,8,471.3,2,514.2,8.3c42.8,6.4,85.8,25,128.6,36c42.9,11,85.5,14.4,128.4,6.9c42.8-7.5,85.8-25.9,107.3-35L900,7v149h-21.5
	c-21.5,0-64.5,0-107.3,0c-42.9,0-85.5,0-128.4,0c-42.8,0-85.8,0-128.6,0c-42.9,0-85.5,0-128.4,0c-42.8,0-85.8,0-128.6,0
	c-42.9,0-85.5,0-128.4,0c-42.8,0-85.8,0-107.3,0H0V37z"/>
</svg>
